# xmcd
#
# Track frame offsets:
#	150
#	14962
#	32989
#	47683
#	65545
#	78476
#	91330
#	106953
#	120868
#	138988
#
# Disc length: 1994 seconds
#
# Revision: 0
# Processed by: cddbd v1.4PL0 Copyright (c) Steve Scherf et al.
# Submitted via: dBpowerAMP V4.0
#
DISCID=8207c80a
DTITLE=Jessica Kenner - Nothing Less
DYEAR=1900
DGENRE=Country
TTITLE0=Echoes of Love
TTITLE1=Field of Dreams
TTITLE2=Pure Bred Country
TTITLE3=Children In The Field
TTITLE4=Blind Faith
TTITLE5=True Love
TTITLE6=Amazing Grace
TTITLE7=Annie's Daddy
TTITLE8=Just Like The Moon
TTITLE9=Opposite Love
EXTD=
EXTT0=
EXTT1=
EXTT2=
EXTT3=
EXTT4=
EXTT5=
EXTT6=
EXTT7=
EXTT8=
EXTT9=
PLAYORDER=
